<?xml version="1.0" standalone="no"?>
<!DOCTYPE svg PUBLIC "-//W3C//DTD SVG 20010904//EN"
 "http://www.w3.org/TR/2001/REC-SVG-20010904/DTD/svg10.dtd">
<svg version="1.0" xmlns="http://www.w3.org/2000/svg"
 width="1628.000000pt" height="1628.000000pt" viewBox="0 0 1628.000000 1628.000000"
 preserveAspectRatio="xMidYMid meet">
<metadata>
Created by potrace 1.14, written by Peter Selinger 2001-2017
</metadata>
<g transform="translate(0.000000,1628.000000) scale(0.100000,-0.100000)"
fill="#000000" stroke="none">
<path d="M8104 16156 c-21 -12 -509 -294 -1084 -626 -575 -332 -1191 -687
-1370 -790 -179 -103 -467 -270 -640 -370 -173 -101 -373 -217 -445 -258 -146
-84 -343 -212 -368 -240 -16 -17 -17 -177 -19 -2293 l-3 -2274 -160 -94 c-88
-51 -484 -281 -880 -509 -396 -228 -814 -470 -930 -537 -115 -67 -397 -229
-625 -360 -228 -131 -431 -248 -450 -260 -19 -12 -109 -64 -200 -115 -223
-125 -528 -310 -623 -378 l-77 -55 2 -2281 3 -2281 335 -194 c1094 -633 2360
-1358 3169 -1815 402 -228 457 -256 478 -247 20 9 894 513 2488 1434 439 254
995 572 1240 710 94 53 178 102 187 109 15 11 -232 156 -1968 1158 l-1984
1145 0 2287 0 2288 23 14 c12 8 904 524 1982 1146 1755 1014 1963 1131 1985
1122 14 -5 907 -518 1984 -1141 1077 -622 1959 -1130 1960 -1129 5 12 -14
4459 -19 4514 l-6 70 -812 469 c-447 258 -1055 609 -1352 780 -297 172 -802
463 -1123 648 -320 185 -600 346 -620 356 l-38 20 -40 -23z"/>
<path d="M5510 7879 l0 -1481 818 5 c961 6 992 9 1178 98 159 77 268 192 356
377 106 220 117 491 28 688 -83 183 -212 301 -427 389 l-54 22 66 38 c83 49
190 161 240 250 126 224 124 500 -6 717 -101 170 -269 295 -459 341 -129 32
-270 37 -1006 37 l-734 0 0 -1481z m1514 962 c94 -31 167 -102 192 -187 50
-172 -7 -333 -145 -407 -93 -51 -149 -57 -578 -57 l-393 0 0 341 0 341 428 -4
c412 -4 429 -5 496 -27z m-22 -1170 c110 -21 169 -50 235 -116 51 -52 64 -72
82 -129 55 -179 4 -358 -129 -448 -101 -69 -120 -71 -632 -76 l-458 -4 0 397
0 397 423 -5 c238 -3 447 -10 479 -16z"/>
<path d="M8460 7880 l0 -1480 290 0 290 0 0 444 0 444 236 246 c131 135 240
246 244 246 3 0 184 -309 402 -687 l396 -688 382 -3 c210 -1 380 2 378 6 -1 5
-261 412 -576 905 l-574 897 473 497 c260 274 506 533 548 576 l76 77 -400 0
-400 0 -585 -650 c-322 -357 -588 -650 -592 -650 -5 0 -8 293 -8 650 l0 650
-290 0 -290 0 0 -1480z"/>
<path d="M12118 7021 l-3 -2292 -1977 -1142 c-1088 -628 -1978 -1145 -1978
-1149 0 -4 5 -8 11 -8 7 0 80 -39 163 -87 332 -190 1679 -969 2687 -1554 764
-443 1075 -619 1096 -619 19 0 58 18 106 50 42 27 79 50 82 50 6 0 645 368
2415 1390 289 167 624 361 745 430 343 198 469 274 551 336 l77 58 -7 1861
c-3 1023 -9 2045 -13 2272 l-6 412 -1011 585 c-556 321 -1234 712 -1506 869
-468 268 -742 428 -1204 701 -110 65 -205 120 -213 123 -11 4 -13 -385 -15
-2286z"/>
<path d="M9135 5890 c-90 -14 -213 -79 -271 -143 -104 -114 -144 -235 -144
-436 0 -143 14 -211 62 -311 37 -76 120 -163 194 -202 140 -75 356 -78 496 -7
86 44 188 178 213 281 7 26 5 27 -102 60 l-108 34 -11 -38 c-47 -156 -178
-231 -326 -186 -61 18 -133 89 -158 154 -48 130 -43 351 10 461 65 132 223
188 350 123 48 -24 106 -90 115 -129 4 -17 10 -31 15 -31 12 0 212 49 216 52
6 7 -46 121 -72 160 -38 55 -125 114 -201 138 -77 24 -196 32 -278 20z"/>
<path d="M5300 5785 l0 -95 165 0 165 0 0 -465 0 -465 110 0 110 0 0 465 0
465 170 0 170 0 0 95 0 95 -445 0 -445 0 0 -95z"/>
<path d="M6340 5321 l0 -561 110 0 110 0 0 210 0 210 123 0 c296 0 408 44 478
186 21 43 24 63 24 169 0 111 -2 124 -27 171 -15 28 -48 70 -74 93 -77 67
-107 73 -446 78 l-298 5 0 -561z m512 357 c23 -7 53 -28 74 -51 35 -38 36 -42
32 -105 -4 -59 -7 -67 -40 -98 -49 -44 -91 -54 -235 -54 l-123 0 0 160 0 160
126 0 c70 0 144 -5 166 -12z"/>
<path d="M7620 5320 l0 -560 110 0 110 0 2 243 3 242 223 3 222 2 0 -245 0
-245 115 0 115 0 0 560 0 560 -115 0 -115 0 0 -225 0 -225 -222 2 -223 3 -3
223 -2 222 -110 0 -110 0 0 -560z"/>
<path d="M9890 5320 l0 -560 100 0 100 0 0 432 c0 238 4 428 8 423 5 -6 52
-183 105 -395 54 -212 102 -402 107 -422 l11 -38 108 0 108 0 91 358 c50 196
100 391 111 432 l19 75 1 -432 1 -433 105 0 105 0 0 560 0 560 -169 0 -168 0
-61 -232 c-34 -128 -78 -297 -99 -375 -20 -79 -40 -143 -43 -143 -4 0 -51 169
-106 375 l-99 375 -167 0 -168 0 0 -560z"/>
<path d="M7180 4865 l0 -105 105 0 105 0 0 105 0 105 -105 0 -105 0 0 -105z"/>
</g>
</svg>
